<svg xmlns="http://www.w3.org/2000/svg" viewBox="0 0 544.000000 544.000000" fill="none">
<g transform="translate(0.000000,544.000000) scale(0.100000,-0.100000)" fill="currentColor" stroke="none">
<path d="M4688 5063 l-208 -3 0 -56 0 -56 203 7 202 7 -242 -244 c-134 -134
-243 -248 -243 -254 0 -5 15 -25 33 -42 l34 -33 248 252 248 252 -8 -207 -7
-206 50 0 50 0 5 38 c2 20 5 116 6 212 0 96 4 212 7 258 l7 82 -89 -2 c-49 -2
-182 -4 -296 -5z"/>
<path d="M3560 4260 c-989 -67 -1674 -341 -1973 -791 -284 -427 -363 -1087
-232 -1923 14 -88 26 -160 27 -162 21 -18 499 -80 738 -95 1344 -83 1961 502
2127 2016 21 193 26 926 7 945 -15 15 -513 22 -694 10z m600 -107 c11 -10 4
-625 -9 -753 -116 -1230 -515 -1826 -1321 -1974 -314 -57 -818 -47 -1239 25
l-63 11 393 394 394 393 510 26 c629 32 575 25 575 80 0 24 -3 46 -7 48 -5 3
-215 -6 -468 -19 -253 -13 -467 -23 -475 -21 -9 2 185 205 500 521 283 284
517 519 519 522 3 2 -11 20 -29 39 l-34 36 -523 -523 c-288 -288 -523 -518
-523 -513 0 6 11 206 25 445 32 560 35 497 -20 506 -25 3 -48 5 -50 2 -4 -4
-24 -312 -50 -793 l-16 -280 -392 -392 c-247 -248 -394 -388 -398 -380 -24 45
-59 473 -59 732 0 798 239 1278 770 1545 368 185 880 299 1480 330 151 8 500
3 510 -7z"/>
<path d="M940 1219 c-124 -3 -244 -7 -267 -8 l-43 -1 0 -51 0 -52 206 6 207 5
-339 -339 -339 -339 38 -37 37 -38 339 339 339 338 -6 -201 -5 -201 50 0 51 0
6 198 c3 108 9 241 12 295 l6 97 -34 -2 c-18 -1 -134 -5 -258 -9z"/>
</g>
</svg>