<svg xmlns="http://www.w3.org/2000/svg" viewBox="0 0 708.000000 708.000000" fill="none">
<g transform="translate(0.000000,708.000000) scale(0.100000,-0.100000)" fill="currentColor" stroke="none">
<path d="M2020 6585 c-105 -33 -180 -137 -188 -262 -5 -81 7 -72 -122 -93
-403 -67 -742 -244 -836 -436 l-29 -59 -3 -2139 c-2 -1915 -1 -2142 13 -2163
9 -13 49 -48 90 -78 l74 -55 3 -385 3 -384 23 -23 c22 -22 30 -23 215 -26 312
-5 297 -20 297 282 0 163 3 207 13 203 258 -114 353 -127 942 -127 550 0 651
12 865 100 l70 29 0 -192 c0 -308 -10 -297 279 -297 197 0 200 0 228 24 l28
24 5 388 5 389 74 50 c103 71 100 63 101 313 l0 212 269 0 268 0 6 -47 c8 -76
65 -112 130 -82 44 20 47 43 47 354 l0 294 -24 28 c-23 27 -28 28 -135 31
l-111 4 0 89 0 89 63 0 c94 0 135 42 115 117 -15 57 -41 63 -262 63 -219 0
-241 -5 -262 -56 -31 -73 19 -124 121 -124 l55 0 0 -90 0 -90 -140 0 -140 0 0
1618 c0 1801 5 1658 -68 1770 -105 160 -397 303 -761 373 -58 11 -118 22 -132
25 -25 5 -27 9 -31 72 -10 129 -80 230 -185 266 -65 22 -902 23 -973 1z m946
-188 c20 -18 28 -35 31 -73 l5 -49 -496 0 -496 0 0 43 c0 35 6 49 29 73 l29
29 436 0 435 0 27 -23z m79 -307 c488 -49 906 -231 942 -410 l6 -30 -1487 0
-1486 0 0 23 c0 13 14 44 30 69 120 181 549 326 1060 359 164 10 795 3 935
-11z m945 -2570 l0 -1960 -1485 0 -1485 0 0 1960 0 1959 1485 1 1485 0 0
-1960z m720 -1355 l0 -115 -270 0 -270 0 0 115 0 115 270 0 270 0 0 -115z
m-1044 -870 c-387 -254 -477 -275 -1155 -275 -591 0 -658 9 -901 122 -75 35
-364 211 -375 229 -4 5 482 9 1277 9 l1283 0 -129 -85z m-2286 -432 l0 -203
-90 0 -90 0 0 260 0 259 90 -57 89 -57 1 -202z m2430 57 l0 -260 -90 0 -90 0
1 203 0 202 87 57 c48 31 88 57 90 57 1 1 2 -116 2 -259z"/>
<path d="M5543 2398 c-337 -613 -513 -1036 -513 -1227 1 -544 671 -803 1048
-406 205 215 212 446 27 880 -98 230 -422 864 -465 908 -4 5 -48 -65 -97 -155z
m257 -523 c241 -492 292 -664 244 -826 -56 -188 -203 -293 -409 -294 -164 0
-270 56 -356 187 -126 195 -86 370 227 1007 l125 254 21 -34 c12 -19 79 -151
148 -294z"/>
</g>
</svg>