<svg xmlns="http://www.w3.org/2000/svg" viewBox="0 0 756.000000 756.000000" fill="none">
<g transform="translate(0.000000,756.000000) scale(0.100000,-0.100000)" fill="currentColor" stroke="none">
<path d="M3410 6212 l0 -309 -67 -12 c-161 -29 -454 -151 -538 -224 -22 -19
-54 -59 -70 -88 l-30 -54 -3 -1724 c-1 -1110 1 -1736 8 -1760 40 -150 243
-275 585 -361 l110 -27 3 -306 2 -307 60 0 60 0 0 294 0 295 173 -5 c94 -3
207 -2 250 3 l77 9 0 -298 0 -298 60 0 60 0 0 310 c0 295 1 310 19 310 41 0
230 55 334 96 185 74 279 141 325 228 l27 51 0 1740 0 1740 -24 50 c-64 128
-292 252 -596 323 l-80 19 -3 307 -2 306 -60 0 -60 0 0 -298 0 -298 -72 7
c-40 4 -120 8 -178 8 -58 0 -138 -4 -177 -8 l-73 -7 0 298 0 298 -60 0 -60 0
0 -308z m578 -403 c340 -37 686 -180 738 -306 10 -24 14 -87 14 -233 l0 -200
-960 0 -960 0 0 203 c1 275 10 294 200 384 276 132 638 189 968 152z m752
-2029 l0 -1170 -960 0 -960 0 0 1170 0 1170 960 0 960 0 0 -1170z m0 -1492
c-1 -274 -6 -287 -175 -373 -467 -238 -1157 -229 -1610 20 -126 69 -135 94
-135 355 l0 200 960 0 960 0 0 -202z"/>
<path d="M1600 4341 l0 -201 -540 0 -540 0 0 -360 0 -360 540 0 540 0 2 -199
3 -200 192 157 c105 86 313 256 462 377 148 121 269 223 268 226 -1 4 -92 80
-202 171 -201 165 -689 563 -712 581 -10 7 -13 -32 -13 -192z m448 -316 c161
-132 291 -242 290 -246 -2 -4 -140 -119 -308 -256 l-305 -250 -3 134 -3 133
-539 0 -540 0 0 240 0 240 540 0 540 0 0 137 c0 129 1 135 18 121 9 -8 149
-122 310 -253z"/>
<path d="M5950 4340 l0 -200 -455 0 -455 0 0 -360 0 -360 455 0 455 0 0 -201
c0 -197 0 -201 19 -188 42 30 906 742 909 749 1 4 -140 123 -315 265 -175 143
-382 312 -460 377 -78 65 -144 118 -147 118 -3 0 -6 -90 -6 -200z m315 -205
c359 -293 425 -348 425 -354 0 -5 -336 -284 -566 -469 l-54 -44 0 136 0 136
-455 0 -455 0 0 240 0 240 455 0 455 0 0 136 c0 108 3 134 13 127 6 -5 89 -72
182 -148z"/>
<path d="M6622 3143 c-210 -324 -296 -550 -262 -694 60 -261 392 -357 580
-169 148 148 129 354 -63 690 -58 101 -174 280 -181 280 -2 0 -35 -48 -74
-107z m140 -211 c186 -318 204 -509 54 -597 -176 -103 -380 45 -337 244 25
118 188 452 220 451 3 0 32 -44 63 -98z"/>
</g>
</svg>