<svg xmlns="http://www.w3.org/2000/svg" viewBox="0 0 708.000000 708.000000" fill="none">
<g transform="translate(0.000000,708.000000) scale(0.100000,-0.100000)" fill="currentColor" stroke="none">
<path d="M2460 6160 l0 -440 37 -57 c70 -111 295 -448 309 -464 11 -12 14 -69
14 -289 0 -314 3 -334 70 -400 55 -55 99 -70 209 -70 l81 0 0 -450 0 -450
-1080 0 -1080 0 0 -900 0 -900 2520 0 2520 0 0 630 0 630 -1350 0 -1350 0 0
196 0 196 27 22 c75 60 387 304 446 349 l67 51 0 313 0 313 83 0 c106 0 149
13 199 58 75 68 78 79 78 399 l0 283 43 58 c23 31 104 153 180 269 l137 211 0
441 0 441 -90 0 -90 0 0 -360 0 -360 -900 0 -900 0 0 360 0 360 -90 0 -90 0 0
-440z m1930 -465 c0 -2 -52 -83 -116 -180 l-115 -175 -618 0 -618 0 -116 175
c-65 96 -117 177 -117 180 0 3 383 5 850 5 468 0 850 -2 850 -5z m-310 -793
c0 -187 -3 -261 -12 -270 -21 -21 -1032 -17 -1052 4 -14 13 -16 52 -16 270 l0
254 540 0 540 0 0 -258z m-361 -734 l0 -273 -155 -120 c-85 -66 -166 -128
-179 -138 l-25 -19 0 411 0 411 180 0 180 0 -1 -272z m-539 -1078 l0 -270
1350 0 1350 0 0 -450 0 -450 -2340 0 -2340 0 0 720 0 720 990 0 990 0 0 -270z"/>
<path d="M4980 6016 l0 -583 -196 -219 c-237 -266 -232 -257 -300 -493 l-56
-191 19 -37 c32 -67 62 -66 238 7 257 107 235 89 501 389 195 220 243 279 273
341 l36 75 3 648 3 647 -91 0 -90 0 0 -632 c-1 -633 -1 -633 -23 -675 -12 -22
-122 -153 -245 -291 -235 -264 -217 -249 -361 -309 l-33 -14 6 28 c37 150 33
143 246 383 111 124 211 243 223 265 22 40 22 42 25 643 l3 602 -91 0 -90 0 0
-584z"/>
<path d="M4298 4258 c-163 -202 -195 -357 -93 -447 133 -117 345 -8 322 164
-10 73 -111 251 -175 308 -19 18 -21 17 -54 -25z m97 -225 c45 -92 22 -163
-54 -163 -102 0 -115 81 -34 219 l26 44 18 -24 c10 -13 30 -47 44 -76z"/>
<path d="M3994 3652 c-177 -215 -204 -399 -72 -475 147 -84 314 18 295 179 -7
62 -64 177 -131 262 -31 39 -58 72 -59 72 -1 0 -16 -17 -33 -38z m87 -224 c16
-32 29 -73 29 -93 0 -87 -116 -120 -155 -44 -22 42 -19 59 26 149 48 95 45 95
100 -12z"/>
<path d="M4591 3618 c-158 -201 -174 -368 -42 -446 32 -19 58 -25 100 -26 175
-1 244 160 145 343 -40 75 -128 191 -144 191 -5 0 -32 -28 -59 -62z m105 -174
c50 -90 53 -126 16 -164 -37 -36 -77 -39 -117 -8 -38 30 -32 100 14 182 39 68
45 67 87 -10z"/>
<path d="M3473 1487 c-319 -379 -391 -688 -207 -886 160 -173 454 -155 585 36
118 172 82 385 -118 684 -66 99 -178 239 -191 239 -4 0 -35 -33 -69 -73z m217
-442 c44 -93 62 -175 50 -229 -43 -189 -295 -214 -385 -37 -43 85 25 293 151
465 l36 49 55 -84 c31 -46 73 -120 93 -164z"/>
</g>
</svg>