<svg xmlns="http://www.w3.org/2000/svg" viewBox="0 0 733.000000 733.000000" fill="none">
<g transform="translate(0.000000,733.000000) scale(0.100000,-0.100000)" fill="currentColor" stroke="none">
<path d="M5160 6820 c-16 -8 -338 -131 -555 -210 -71 -26 -131 -52 -132 -57
-2 -5 46 -151 107 -324 60 -173 110 -319 110 -325 0 -6 -174 -77 -387 -157
-1275 -480 -1639 -617 -1903 -717 -162 -61 -452 -170 -645 -242 -192 -72 -353
-134 -357 -137 -7 -6 227 -669 240 -683 4 -4 54 11 111 33 58 21 106 39 108
39 2 0 3 -187 3 -415 l0 -415 -225 0 -225 0 0 -450 0 -450 -225 0 -225 0 0
-90 0 -90 2700 0 2700 0 0 90 0 90 -183 0 -182 0 3 270 4 270 -91 0 -91 0 2
773 3 772 52 20 52 20 25 135 c44 237 50 291 50 505 1 631 -215 1159 -654
1596 -146 145 -167 162 -190 149z m89 -298 c307 -313 487 -677 563 -1137 20
-122 17 -492 -5 -635 -30 -193 -24 -182 -120 -218 -100 -38 -103 -38 -118 -9
-11 21 -248 421 -411 694 -72 122 -88 159 -189 445 -60 172 -123 349 -139 393
-67 185 -141 397 -138 399 11 8 436 164 447 165 8 1 58 -43 110 -97z m-430
-968 c34 -97 59 -180 54 -184 -4 -4 -87 -37 -183 -73 -96 -36 -308 -116 -470
-177 -162 -61 -484 -183 -715 -270 -422 -159 -837 -316 -1430 -539 -175 -67
-322 -121 -325 -121 -7 0 -18 28 -81 209 -28 79 -49 145 -47 146 2 2 104 42
228 88 124 47 340 129 480 182 140 54 365 139 500 189 892 336 1505 567 1695
640 121 47 223 85 226 85 3 1 34 -78 68 -175z m248 -529 c215 -368 426 -721
437 -732 9 -10 22 -9 64 7 29 11 57 20 62 20 7 0 10 -257 10 -735 l0 -735 -90
0 -90 0 0 -270 0 -270 -527 2 -528 3 -31 170 c-18 94 -68 361 -113 595 -180
946 -321 1695 -323 1718 -3 23 6 28 97 62 55 21 285 108 510 193 226 86 413
152 416 149 4 -4 51 -83 106 -177z m-1197 -840 c59 -308 130 -686 159 -840 29
-154 70 -371 92 -481 54 -280 99 -527 99 -541 0 -10 -119 -13 -561 -13 l-561
0 7 48 c4 26 33 184 65 352 32 168 86 451 120 630 33 179 65 345 70 370 5 25
46 239 90 475 44 237 84 443 88 460 7 26 18 34 102 67 52 20 101 36 109 35 11
-1 41 -143 121 -562z m-526 398 c-7 -33 -386 -2032 -422 -2228 l-8 -40 -212
-3 -212 -2 0 450 0 450 -225 0 -225 0 0 449 0 449 93 36 c50 19 250 95 442
167 193 73 442 167 555 210 235 89 219 84 214 62z m-1024 -1913 l0 -360 -365
0 -365 0 0 360 0 360 365 0 365 0 0 -360z m3500 -180 l0 -180 -95 0 -95 0 0
180 0 180 95 0 95 0 0 -180z"/>
<path d="M3558 1703 c-287 -384 -401 -650 -358 -834 86 -366 550 -493 803
-219 224 242 153 530 -266 1088 -39 50 -73 92 -77 92 -4 0 -50 -57 -102 -127z
m186 -280 c128 -197 198 -348 204 -437 14 -224 -215 -376 -416 -275 -140 69
-195 210 -143 363 38 109 246 466 271 466 5 0 42 -53 84 -117z"/>
</g>
</svg>