<svg xmlns="http://www.w3.org/2000/svg" viewBox="0 0 1044.000000 1044.000000" fill="none">
<g transform="translate(0.000000,1044.000000) scale(0.100000,-0.100000)" fill="currentColor" stroke="none">
<path d="M4408 9704 c-57 -31 -61 -54 -54 -309 l8 -231 -99 -23 c-1669 -398
-2919 -1870 -3064 -3609 -31 -372 26 -1072 99 -1207 41 -78 152 -85 203 -13
27 37 26 65 -4 223 -85 435 -85 918 -2 1370 275 1489 1465 2724 2910 3020 112
22 134 30 160 56 l30 29 5 168 5 168 441 -335 c243 -185 457 -348 475 -363
l34 -27 -40 -37 c-382 -354 -578 -535 -708 -658 -181 -169 -177 -168 -177 -33
0 220 -87 234 -480 80 -919 -361 -1607 -1168 -1815 -2128 -91 -418 -85 -889
16 -1308 46 -194 71 -225 166 -214 96 11 123 74 88 205 -111 406 -121 857 -29
1270 195 875 821 1615 1644 1940 185 73 166 74 173 -5 4 -38 7 -111 7 -164 0
-131 39 -190 125 -188 49 1 52 3 376 304 172 160 412 382 534 495 121 113 264
245 318 294 105 96 123 129 106 189 -13 47 -27 58 -494 412 -231 175 -510 387
-620 470 -254 193 -266 198 -337 159z"/>
<path d="M5890 9183 c-59 -23 -91 -94 -70 -157 16 -50 52 -71 155 -91 144 -28
422 -110 572 -168 2060 -805 3015 -3157 2082 -5126 -92 -194 -90 -201 117
-342 74 -51 133 -94 131 -95 -1 -1 -90 -43 -197 -92 -107 -50 -364 -169 -571
-265 l-377 -174 -5 51 c-4 28 -16 157 -27 286 -12 129 -39 424 -60 655 -21
231 -38 421 -36 422 1 1 37 -21 79 -49 120 -79 195 -70 238 30 243 564 295
1265 139 1884 -255 1010 -1066 1839 -2068 2114 -143 39 -152 40 -196 19 -62
-30 -84 -110 -47 -171 21 -35 30 -39 201 -89 1401 -408 2234 -1861 1874 -3270
-29 -116 -75 -265 -80 -265 -2 0 -59 38 -125 85 -130 91 -160 101 -219 70 -76
-39 -77 7 20 -1025 16 -173 41 -457 56 -630 29 -339 36 -370 87 -397 68 -35
21 -54 1172 477 491 226 473 217 491 251 48 93 24 128 -192 275 -101 69 -184
129 -184 133 0 5 17 46 39 92 359 782 439 1714 220 2584 -334 1328 -1318 2391
-2632 2844 -216 74 -547 150 -587 134z"/>
<path d="M5170 7319 c-46 -19 -90 -73 -287 -354 -712 -1018 -1093 -1856 -1058
-2325 65 -860 872 -1464 1700 -1270 609 142 1069 717 1069 1335 -1 501 -403
1343 -1129 2360 -186 262 -214 286 -295 254z m129 -443 c610 -866 987 -1614
1042 -2066 53 -436 -213 -902 -637 -1114 -695 -347 -1534 121 -1626 906 -45
382 211 1001 775 1878 113 176 347 510 357 510 5 0 45 -51 89 -114z"/>
<path d="M4423 4845 c-164 -71 -43 -513 205 -747 186 -175 539 -292 653 -215
117 79 53 227 -99 227 -292 0 -560 268 -587 587 -11 131 -79 189 -172 148z"/>
<path d="M1661 4513 c-69 -36 -68 -29 -95 -458 -102 -1605 -99 -1445 -32
-1486 63 -38 93 -29 307 96 108 63 201 115 206 115 5 0 31 -27 56 -60 514
-662 1337 -1200 2165 -1415 186 -49 241 -44 277 25 46 90 -5 165 -130 190
-102 21 -375 106 -506 159 -625 249 -1204 677 -1610 1190 -195 246 -175 241
-413 102 -76 -45 -141 -79 -144 -76 -3 3 2 121 11 262 9 142 26 413 37 603 11
190 22 373 26 407 l5 62 37 -14 c108 -39 1237 -515 1239 -522 2 -4 -40 -32
-92 -62 -82 -47 -98 -61 -116 -99 -33 -67 -19 -97 110 -244 424 -483 933 -798
1525 -944 207 -50 257 -43 292 43 36 85 -19 151 -149 176 -395 78 -807 276
-1132 544 -109 90 -363 338 -355 346 3 3 62 37 132 77 143 81 175 108 184 155
14 75 -17 115 -129 163 -274 119 -1616 672 -1642 677 -19 4 -43 -1 -64 -12z"/>
<path d="M7082 3279 c-332 -313 -802 -592 -1133 -672 l-26 -7 -6 158 c-6 174
-14 202 -62 232 -58 36 -97 26 -176 -44 -376 -333 -1246 -1132 -1259 -1156
-20 -37 -12 -98 18 -130 23 -26 471 -335 1170 -809 205 -140 222 -146 287
-115 63 30 69 59 61 305 l-7 217 58 12 c556 112 1228 437 1671 810 105 89 119
156 45 220 -56 50 -110 41 -200 -32 -451 -368 -1041 -651 -1590 -763 -226 -46
-223 -43 -223 -267 0 -87 -3 -158 -6 -158 -3 0 -125 82 -272 183 -147 101
-367 252 -490 336 -123 85 -220 157 -215 161 4 4 220 200 478 435 l470 426 5
-108 c7 -139 17 -156 112 -186 20 -7 238 49 358 91 406 141 769 366 1077 665
146 142 164 195 91 267 -25 25 -37 30 -79 30 -49 0 -51 -1 -157 -101z"/>
</g>
</svg>