<svg xmlns="http://www.w3.org/2000/svg" viewBox="0 0 834.000000 834.000000" fill="none">
<g transform="translate(0.000000,834.000000) scale(0.100000,-0.100000)" fill="currentColor" stroke="none">
<path d="M3200 6410 c-1379 -93 -2451 -592 -2610 -1216 -30 -118 -31 -1908 -1
-2025 233 -909 2187 -1472 4026 -1159 969 165 1714 576 1898 1048 l29 72 87 0
c116 0 145 16 189 101 82 162 62 390 -43 497 l-42 42 -82 0 -81 0 0 672 c0
587 -2 680 -16 737 -150 606 -1132 1095 -2439 1216 -205 19 -728 27 -915 15z
m920 -105 c962 -93 1724 -371 2121 -775 561 -569 107 -1229 -1097 -1595 -672
-205 -1538 -265 -2354 -164 -998 124 -1838 524 -2064 983 -364 738 814 1468
2534 1570 147 8 703 -4 860 -19z m-3329 -1801 c691 -769 2628 -1096 4184 -708
664 165 1215 469 1443 794 25 36 49 69 54 74 4 6 8 -193 8 -442 l0 -452 -277
0 c-245 0 -282 -2 -313 -18 -150 -75 -185 -403 -58 -556 52 -63 66 -66 354
-66 l256 0 -7 -27 c-21 -88 -153 -265 -273 -369 -949 -818 -3314 -971 -4707
-304 -388 186 -669 445 -763 702 l-27 73 -3 739 -3 740 40 -61 c21 -33 63 -87
92 -119z m5737 -876 c-34 -87 -37 -244 -6 -335 l24 -73 -306 0 c-300 0 -307 0
-329 22 -90 83 -90 333 0 416 22 22 29 22 330 22 l307 0 -20 -52z m201 23 c83
-117 51 -431 -44 -431 -52 0 -95 103 -95 230 0 173 78 287 139 201z"/>
<path d="M3105 6159 c-1467 -118 -2449 -696 -2223 -1309 179 -487 1084 -871
2262 -961 204 -16 844 -6 1036 15 1112 124 1882 472 2076 941 39 94 42 255 6
349 -174 467 -968 831 -2075 952 -167 19 -907 28 -1082 13z m750 -83 c1038
-34 2022 -385 2272 -811 78 -132 94 -277 44 -390 l-21 -47 -80 85 c-936 989
-4059 987 -5003 -2 l-78 -81 -21 47 c-124 281 134 618 647 846 536 238 1337
382 2010 360 33 -1 137 -4 230 -7z m65 -517 c957 -55 1834 -368 2139 -763 l43
-56 -23 -28 c-284 -336 -978 -609 -1799 -706 -1281 -153 -2665 134 -3168 657
-87 90 -88 82 27 197 483 483 1607 766 2781 699z"/>
<path d="M2689 5266 c-26 -7 -70 -29 -99 -50 -64 -46 -109 -66 -148 -66 -34 0
-52 -16 -52 -47 0 -63 117 -51 226 24 113 77 162 78 265 4 132 -95 229 -93
375 6 96 65 151 62 259 -12 124 -85 220 -83 361 5 102 65 155 68 231 16 161
-110 259 -112 406 -5 85 62 137 58 255 -18 103 -68 205 -81 218 -28 9 34 -11
55 -53 55 -38 0 -77 17 -143 65 -122 87 -208 80 -380 -31 -78 -50 -133 -46
-227 19 -142 97 -216 96 -372 -5 -101 -66 -143 -66 -233 -4 -155 105 -233 108
-375 13 -112 -74 -165 -74 -275 0 -48 32 -96 55 -128 62 -60 13 -52 13 -111
-3z"/>
<path d="M1579 4861 c-40 -32 -16 -62 60 -77 42 -9 88 -29 136 -59 151 -94
243 -94 408 0 144 83 198 83 322 4 156 -99 261 -100 422 -3 149 90 173 89 374
-24 101 -57 209 -62 209 -10 0 36 -12 46 -65 53 -27 4 -75 21 -105 38 -129 71
-163 86 -214 92 -72 9 -151 -14 -241 -71 -127 -81 -197 -81 -328 0 -93 57
-171 80 -243 71 -52 -6 -89 -22 -219 -95 -97 -55 -157 -50 -277 23 -61 37
-113 60 -147 67 -69 13 -65 13 -92 -9z"/>
<path d="M4418 4870 c-21 -13 -24 -53 -5 -67 6 -6 35 -13 62 -17 30 -4 70 -19
100 -38 193 -121 271 -125 442 -22 136 82 191 82 314 3 85 -55 118 -69 180
-71 109 -5 105 78 -4 93 -37 5 -74 18 -104 38 -176 114 -271 117 -437 12 -122
-78 -186 -78 -305 -1 -102 66 -202 95 -243 70z"/>
<path d="M2938 4460 c-45 -28 -16 -72 54 -83 20 -3 71 -28 113 -56 43 -28 91
-53 108 -56 18 -3 43 -7 57 -9 45 -7 119 20 190 69 108 75 148 74 264 -1 138
-90 231 -89 364 2 106 72 157 71 269 -5 108 -74 210 -85 297 -32 17 10 58 35
90 55 37 22 73 36 93 36 36 0 58 27 48 60 -17 53 -126 30 -238 -51 -85 -62
-150 -58 -256 15 -123 85 -219 85 -348 0 -115 -75 -170 -77 -263 -9 -132 97
-234 98 -373 2 -102 -69 -163 -70 -251 -3 -77 58 -180 89 -218 66z"/>
<path d="M7230 3791 c-5 -11 -10 -56 -10 -100 l0 -81 -97 4 c-141 6 -153 3
-153 -45 l0 -39 168 2 167 3 3 73 c2 39 5 72 9 72 4 0 244 -166 307 -213 17
-12 6 -22 -135 -121 -193 -137 -179 -132 -179 -53 0 36 -4 68 -8 71 -7 4 -282
10 -319 7 -8 -1 -13 -16 -13 -41 l0 -40 125 0 125 0 0 -83 c0 -97 19 -130 63
-110 36 17 471 324 480 339 14 24 -9 48 -105 115 -51 36 -155 109 -231 162
-141 99 -177 114 -197 78z"/>
<path d="M6882 3038 c-27 -33 -186 -332 -214 -403 -72 -182 -27 -329 125 -407
125 -63 295 -11 366 113 62 109 51 192 -51 402 -133 271 -187 342 -226 295z
m114 -265 c131 -242 142 -354 46 -435 -157 -132 -371 21 -306 219 17 52 120
267 155 323 26 42 24 43 105 -107z"/>
</g>
</svg>